<svg xmlns="http://www.w3.org/2000/svg" xmlns:xlink="http://www.w3.org/1999/xlink" fill="none" version="1.1" width="24" height="24" viewBox="0 0 24 24"><defs><clipPath id="master_svg0_3_0227"><rect x="0" y="0" width="24" height="24" rx="0"/></clipPath></defs><g clip-path="url(#master_svg0_3_0227)"><g><path d="M11.5,2.75C6.66751,2.75,2.75,6.66751,2.75,11.5C2.75,16.3325,6.66751,20.25,11.5,20.25C16.3325,20.25,20.25,16.3325,20.25,11.5C20.25,6.66751,16.3325,2.75,11.5,2.75ZM1.25,11.5C1.25,5.84,5.84,1.25,11.5,1.25C17.16,1.25,21.75,5.84,21.75,11.5C21.75,17.16,17.16,21.75,11.5,21.75C5.84,21.75,1.25,17.16,1.25,11.5ZM19.47,19.47C19.7628,19.1775,20.2372,19.1775,20.53,19.47L22.53,21.47C22.8406,21.7594,22.8493,22.2488,22.5491,22.5491C22.2488,22.8493,21.7594,22.8406,21.47,22.53L19.47,20.53C19.1775,20.2372,19.1775,19.7628,19.47,19.47Z" fill-rule="evenodd" fill="#000000" fill-opacity="1"/></g></g></svg>