<svg xmlns="http://www.w3.org/2000/svg" xmlns:xlink="http://www.w3.org/1999/xlink" fill="none" version="1.1" width="24" height="24" viewBox="0 0 24 24"><defs><clipPath id="master_svg0_35_1224"><rect x="0" y="0" width="24" height="24" rx="0"/></clipPath></defs><g clip-path="url(#master_svg0_35_1224)"><g><g><path d="M14.046907424926758,10.970969583282471C14.046907424926758,10.402939583282471,14.505008424926757,9.94245958328247,15.070107424926757,9.94245958328247C15.635197424926758,9.94245958328247,16.093307424926756,10.402939583282471,16.093307424926756,10.970969583282471L16.093307424926756,13.02799958328247C16.093307424926756,13.596029583282471,15.635197424926758,14.05650958328247,15.070107424926757,14.05650958328247C14.505008424926757,14.05650958328247,14.046907424926758,13.596029583282471,14.046907424926758,13.02799958328247L14.046907424926758,10.970969583282471Z" fill="#FFFFFF" fill-opacity="1"/><path d="M13.296907424926758,10.970969583282471L13.296907424926758,13.02799958328247Q13.296907424926758,13.763539583282471,13.814892424926757,14.284219583282471Q14.334483424926757,14.80650958328247,15.070107424926757,14.80650958328247Q15.805727424926758,14.80650958328247,16.32531742492676,14.284219583282471Q16.843307424926756,13.763539583282471,16.843307424926756,13.02799958328247L16.843307424926756,10.970969583282471Q16.843307424926756,10.23542558328247,16.32531742492676,9.71474958328247Q15.805727424926758,9.19245958328247,15.070107424926757,9.19245958328247Q14.334483424926757,9.19245958328247,13.814892424926757,9.71474958328247Q13.296907424926758,10.23542558328247,13.296907424926758,10.970969583282471ZM15.070107424926757,13.306509583282471Q14.796907424926758,13.306509583282471,14.796907424926758,13.02799958328247L14.796907424926758,10.970969583282471Q14.796907424926758,10.69245958328247,15.070107424926757,10.69245958328247Q15.343307424926758,10.69245958328247,15.343307424926758,10.970969583282471L15.343307424926758,13.02799958328247Q15.343307424926758,13.306509583282471,15.070107424926757,13.306509583282471Z" fill-rule="evenodd" fill="#4D4DFF" fill-opacity="1"/></g><g><path d="M15.0875,7.11405L15.0875,8.65682C16.0759,8.65682,16.8812,7.85252,16.8812,6.856920000000001L16.8812,4.57024C18.9335,4.64022,19.8833,4.8891100000000005,20.5145,5.52191L20.5135,5.52294C21.1152,6.12565,21.3751,7.02663,21.4549,8.93555L22.9886,8.870750000000001C22.9068,6.94189,22.6511,5.48789,21.5991,4.43169L21.6002,4.43066C20.4613,3.289013,18.8508,3.0771395,16.654,3.019543C15.937,3.00161965,15.3461,3.581121,15.3464,4.3021L15.3464,6.856920000000001C15.3464,6.9968,15.2318,7.11405,15.0875,7.11405ZM1.0123906,15.1282C1.0942464,17.0577,1.350046,18.512,2.40292,19.5683L2.94473,19.0226L3.48751,18.476C2.88484,17.8733,2.6259699999999997,16.9723,2.54616,15.0634L1.0123906,15.1282ZM1.0101673,8.9001C1.00334003,9.066749999999999,0.99636027,9.23712,1.00215859,9.38089C1.00932094,9.53517,1.0328545,9.75836,1.155638,9.97743L1.155638,9.9764C1.241975,10.12898,1.355291,10.233640000000001,1.4308779999999999,10.2973C1.512734,10.365179999999999,1.603799,10.42689,1.690771,10.48243C1.861645,10.59145,2.09596,10.72207,2.3691500000000003,10.877379999999999L3.11813,9.529C2.84667,9.37623,2.66272,9.272829999999999,2.5354099999999997,9.193629999999999C2.5355499999999997,9.18749,2.53573,9.181339999999999,2.53593,9.17519L2.54514,8.93555L1.0113673,8.870750000000001C1.0109696,8.88052,1.0105687,8.8903,1.0101673,8.9001ZM2.40292,19.5693C3.17031,20.3387,4.1444,20.6801,5.34563,20.8426C6.5115,21,7.99858,21,9.87779,21L9.95002,21L9.95002,20.999L13.0319,20.999L13.0319,19.4562L9.949,19.4562C7.99367,19.4562,6.60314,19.4541,5.54925,19.3122C4.516220000000001,19.1734,3.92181,18.912300000000002,3.48648,18.476L2.94473,19.0226L2.40292,19.5693ZM1.00318171,14.617C0.99740118,14.7604,1.00432045,14.9301,1.0111277,15.0972C1.0115501,15.1075,1.0119721,15.1179,1.0123906,15.1282L2.54616,15.0624C2.5424800000000003,14.9825,2.53941,14.9027,2.53696,14.8228C2.53673,14.816,2.53654,14.8092,2.53639,14.8025C2.66341,14.7227,2.84603,14.6205,3.11813,14.4679L3.11813,14.47C4.00936,13.9711,4.561859999999999,13.0256,4.561859999999999,11.99948C4.561920000000001,10.97429,4.00989,10.02938,3.11915,9.53003L2.3691500000000003,10.877379999999999C2.7641,11.09851,3.02707,11.51917,3.02707,11.99948C3.02707,12.47945,2.76449,12.89984,2.3700200000000002,13.1221L2.3691500000000003,13.1206C2.09596,13.2748,1.861645,13.4055,1.690771,13.5145C1.600308,13.5706,1.5135,13.6324,1.4308779999999999,13.6996C1.32055,13.7886,1.227576,13.8974,1.156661,14.0215C1.0586097,14.2044,1.0063611,14.4089,1.00318171,14.617ZM13.0329,20.999C13.047,20.999,13.0611,20.999,13.0753,20.999C13.2827,20.9991,13.5063,20.9992,13.6949,20.9733C13.919,20.9424,14.2045,20.8653,14.446,20.6236C14.6432,20.4186,14.7664,20.1532,14.7959,19.8697C14.8216,19.6813,14.8225,19.4582,14.8233,19.2509C15.0149,19.2587,15.1887,19.2664,15.3463,19.2741C15.3464,19.4708,15.3485,19.6788,15.373,19.8573C15.4047,20.0898,15.4876,20.3829,15.7403,20.6266C15.99,20.8673,16.281599999999997,20.9393,16.5149,20.9619C16.6563,20.976,16.8149,20.9752,16.950499999999998,20.4765L17.184,20.9619C19.1025,20.8797,20.5483,20.6225,21.5981,19.5683C22.652,18.512,22.9078,17.0587,22.9886,15.1282L22.9898,15.099C22.9967,14.9323,23.0036,14.7619,22.9978,14.6181C22.9943,14.4098,22.9417,14.2054,22.8444,14.0215C22.7742,13.8984,22.6808,13.7896,22.5701,13.7006C22.4875,13.6334,22.4007,13.5716,22.3103,13.5155C22.1394,13.4065,21.9051,13.2759,21.6319,13.1216L21.6319,13.1226C21.2256,12.89578,20.974,12.46595,20.974,11.99948C20.974,11.51917,21.2369,11.09851,21.6319,10.877379999999999C21.9051,10.723099999999999,22.1394,10.59248,22.3103,10.483460000000001C22.4006,10.42712,22.4873,10.365300000000001,22.5701,10.29832C22.6805,10.20929,22.7734,10.10049,22.8444,9.97743L21.505,9.22456L22.8454,9.9764C22.9421,9.79233,22.9943,9.58798,22.9978,9.37986C23.0014,9.20975,22.9979,9.03956,21.4549,8.93555L21.4641,9.17416C21.4643,9.18154,21.4645,9.18863,21.4646,9.19546C21.3375,9.27528,21.1546,9.37765,20.8829,9.53003C19.9916,10.02938,19.4392,10.97433,19.4392,11.99948C19.4392,13.063,20.0234,13.9866,20.8829,14.4689C21.1536,14.6213,21.3373,14.7246,21.4646,14.8037C21.4645,14.8101,21.4643,14.8168,21.4641,14.8238L21.4549,15.0634C21.375,16.9723,21.1162,17.8733,20.5135,18.476C19.9144,19.0789,19.016,19.34,17.1196,19.4202C17.0123,19.4247,16.926099999999998,19.4284,16.8521,19.43C16.8063,19.403,16.6922,19.3747,16.406399999999998,19.3455L16.3246,19.1754L16.8812,19.1754L16.8801,17.142C16.8801,16.1464,16.0749,15.3421,15.0865,15.3421C14.0987,15.3421,13.2949,16.1453,13.2938,17.14C13.2938,17.140700000000002,13.2938,17.1414,13.2938,17.142L13.2938,17.14L14.0612,17.142L13.2938,17.142C13.2938,17.1414,13.2938,17.140700000000002,13.2938,17.14L13.2938,17.142L13.2877,19.2001L13.2887,19.2001C13.2887,19.3017,13.2887,19.384,13.287,19.4551C13.2156,19.4562,13.134,19.4562,13.0329,19.4562L13.0329,20.999Z" fill="#4D4DFF" fill-opacity="1"/></g></g></g></svg>