<svg xmlns="http://www.w3.org/2000/svg" xmlns:xlink="http://www.w3.org/1999/xlink" fill="none" version="1.1" width="13" height="13" viewBox="0 0 24 24"><defs><clipPath id="master_svg0_3_0259"><rect x="0" y="0" width="24" height="24" rx="0"/></clipPath></defs><g clip-path="url(#master_svg0_3_0259)"><g><path d="M5.624,4.424002264862061C3.965,5.18200226486206,2.75,6.98600226486206,2.75,9.13700226486206C2.75,11.334002264862061,3.65,13.028022264862061,4.938000000000001,14.480022264862061C6.001,15.67602226486206,7.287,16.66802226486206,8.541,17.63402226486206C8.839,17.864022264862058,9.135,18.09302226486206,9.426,18.32202226486206C9.952,18.73702226486206,10.421,19.100022264862062,10.874,19.36502226486206C11.326,19.629022264862062,11.69,19.75002226486206,12,19.75002226486206C12.31,19.75002226486206,12.674,19.63002226486206,13.126,19.36502226486206C13.579,19.100022264862062,14.048,18.73702226486206,14.574,18.32202226486206C14.864,18.09202226486206,15.161,17.864022264862058,15.459,17.63502226486206C16.713,16.667022264862062,17.999,15.67602226486206,19.062,14.480022264862061C20.351,13.028022264862061,21.25,11.334002264862061,21.25,9.13700226486206C21.25,6.987002264862061,20.035,5.18200226486206,18.376,4.424002264862061C16.764,3.687002264862061,14.598,3.8820022648620602,12.54,6.0210022648620605C12.245,6.327022264862061,11.755,6.327022264862061,11.46,6.0210022648620605C9.402,3.8820022648620602,7.236,3.687002264862061,5.624,4.424002264862061ZM12,4.4600022648620605C9.688,2.3900002648620604,7.099,2.1000002648620604,5,3.0590002648620604C2.786,4.07400226486206,1.25,6.426002264862061,1.25,9.13800226486206C1.25,11.80300226486206,2.3600000000000003,13.83702226486206,3.817,15.477022264862061C4.9830000000000005,16.79002226486206,6.41,17.88902226486206,7.671,18.85902226486206C7.957,19.07902226486206,8.234,19.29302226486206,8.497,19.501022264862062C9.01,19.905022264862062,9.56,20.33502226486206,10.117,20.661022264862062C10.674,20.98602226486206,11.31,21.251022264862062,12,21.251022264862062C12.69,21.251022264862062,13.326,20.98602226486206,13.883,20.661022264862062C14.441,20.33502226486206,14.99,19.905022264862062,15.503,19.501022264862062C15.7769,19.28512226486206,16.0522,19.071122264862062,16.329,18.85902226486206C17.589,17.88902226486206,19.017,16.789022264862062,20.183,15.477022264862061C21.64,13.83702226486206,22.75,11.80300226486206,22.75,9.13800226486206C22.75,6.426002264862061,21.215,4.07400226486206,19,3.0609982648620604C16.901,2.1009982648620604,14.312,2.3909982648620605,12,4.4600022648620605Z" fill-rule="evenodd" fill="#000000" fill-opacity="1"/></g></g></svg>
