<svg xmlns="http://www.w3.org/2000/svg" xmlns:xlink="http://www.w3.org/1999/xlink" fill="none" version="1.1" width="24" height="24" viewBox="0 0 24 24"><defs><clipPath id="master_svg0_3_0211"><rect x="0" y="0" width="24" height="24" rx="0"/></clipPath></defs><g clip-path="url(#master_svg0_3_0211)"><g><path d="M2.236999888381958,2.288000069659424C1.843700888381958,2.156871569659424,1.418588888381958,2.369521869659424,1.287652388381958,2.7628848696594237C1.156715788381958,3.156246869659424,1.369573888381958,3.5812518696594235,1.762999888381958,3.712001869659424L2.027999888381958,3.8000018696594235C2.703999888381958,4.025001869659424,3.151999888381958,4.176001869659424,3.480999888381958,4.3290018696594235C3.7929998883819582,4.474001869659424,3.927999888381958,4.591001869659424,4.013999888381958,4.711001869659424C4.100999888381958,4.831001869659424,4.168999888381958,4.995001869659424,4.207999888381957,5.337001869659424C4.248999888381958,5.698001869659423,4.249999888381958,6.170001869659424,4.249999888381958,6.883001869659424L4.249999888381958,9.555001869659424C4.249999888381958,10.922001869659423,4.249999888381958,12.025001869659423,4.366999888381958,12.891971869659423C4.486999888381958,13.791971869659424,4.746999888381958,14.549971869659425,5.348999888381958,15.151971869659423C5.949999888381958,15.753971869659424,6.708999888381958,16.011971869659426,7.608999888381958,16.133971869659426C8.474999888381959,16.249971869659426,9.577999888381958,16.249971869659426,10.944999888381957,16.249971869659426L19.00003988838196,16.249971869659426C19.414239888381957,16.249971869659426,19.75003988838196,15.914171869659423,19.75003988838196,15.499971869659424C19.75003988838196,15.085771869659423,19.414239888381957,14.749971869659424,19.00003988838196,14.749971869659424L10.999999888381957,14.749971869659424C9.564999888381958,14.749971869659424,8.563999888381957,14.747971869659423,7.807999888381958,14.646971869659424C7.074999888381958,14.547971869659424,6.685999888381958,14.366971869659423,6.408999888381958,14.090971869659423C6.308179888381958,13.990071869659424,6.222309888381958,13.875271869659423,6.153999888381958,13.749971869659424L16.05903988838196,13.749971869659424C16.507039888381957,13.749971869659424,16.90103988838196,13.749971869659424,17.22903988838196,13.714971869659424C17.583039888381958,13.675971869659424,17.92703988838196,13.590971869659423,18.249039888381958,13.377971869659424C18.57303988838196,13.164971869659423,18.786039888381957,12.882971869659423,18.961039888381958,12.571971869659423C19.12203988838196,12.285971869659424,19.278039888381958,11.923001869659425,19.454039888381956,11.511001869659424L19.92103988838196,10.421001869659424C20.306039888381957,9.525001869659423,20.627039888381958,8.774001869659424,20.78803988838196,8.164001869659423C20.95603988838196,7.527001869659424,21.00003988838196,6.862001869659424,20.60403988838196,6.261001869659424C20.208039888381958,5.661001869659424,19.579039888381956,5.439001869659424,18.928039888381957,5.342001869659423C18.303039888381957,5.250001869659424,17.487039888381958,5.250001869659424,16.51103988838196,5.250001869659424L5.706999888381958,5.250001869659424C5.704219888381958,5.222311869659424,5.701219888381958,5.194641869659424,5.697999888381958,5.167001869659424C5.642999888381958,4.682001869659423,5.521999888381958,4.237001869659424,5.230999888381958,3.834001869659424C4.9399998883819585,3.430001869659424,4.555999888381958,3.174000869659424,4.113999888381958,2.969000869659424C3.696999888381958,2.775000869659424,3.1679998883819582,2.599001869659424,2.541999888381958,2.389000869659424L2.236999888381958,2.288000069659424ZM5.749999888381958,6.750001869659424L5.749999888381958,9.500001869659425C5.749999888381958,10.672001869659423,5.750999888381958,11.554001869659423,5.806999888381958,12.249971869659424L16.022039888381958,12.249971869659424C16.518039888381956,12.249971869659424,16.83103988838196,12.249001869659423,17.06803988838196,12.223001869659424C17.28703988838196,12.200001869659424,17.371039888381958,12.161001869659424,17.42403988838196,12.126001869659424C17.47703988838196,12.091001869659424,17.54603988838196,12.029001869659425,17.65403988838196,11.837001869659424C17.771039888381956,11.629001869659424,17.894039888381958,11.342001869659423,18.09003988838196,10.887001869659423L18.519039888381958,9.887001869659425C18.93303988838196,8.919001869659425,19.20903988838196,8.271001869659424,19.338039888381957,7.781001869659423C19.464039888381958,7.305001869659423,19.400039888381958,7.161001869659424,19.35203988838196,7.0870018696594235C19.303039888381957,7.014001869659424,19.19503988838196,6.898001869659423,18.708039888381958,6.827001869659424C18.207039888381956,6.7520018696594235,17.50303988838196,6.750001869659424,16.451039888381956,6.750001869659424L5.749999888381958,6.750001869659424ZM5.249999888381958,19.499971869659422C5.249999888381958,20.742671869659425,6.257359888381958,21.749971869659422,7.499999888381958,21.749971869659422C8.742639888381959,21.749971869659422,9.749999888381957,20.742671869659425,9.749999888381957,19.499971869659422C9.749999888381957,18.257371869659423,8.742639888381959,17.249971869659426,7.499999888381958,17.249971869659426C6.257359888381958,17.249971869659426,5.249999888381958,18.257371869659423,5.249999888381958,19.499971869659422ZM7.499999888381958,20.249971869659422C7.085789888381958,20.249971869659422,6.749999888381958,19.914171869659423,6.749999888381958,19.499971869659422C6.749999888381958,19.085771869659425,7.085789888381958,18.749971869659422,7.499999888381958,18.749971869659422C7.914209888381958,18.749971869659422,8.249999888381957,19.085771869659425,8.249999888381957,19.499971869659422C8.249999888381957,19.914171869659423,7.914209888381958,20.249971869659422,7.499999888381958,20.249971869659422ZM16.500039888381956,21.749971869659422C15.257339888381958,21.749971869659422,14.250039888381957,20.742671869659425,14.250039888381957,19.499971869659422C14.250039888381957,18.257371869659423,15.257339888381958,17.249971869659426,16.500039888381956,17.249971869659426C17.74263988838196,17.249971869659426,18.75003988838196,18.257371869659423,18.75003988838196,19.499971869659422C18.75003988838196,20.742671869659425,17.74263988838196,21.749971869659422,16.500039888381956,21.749971869659422ZM15.750039888381957,19.499971869659422C15.750039888381957,19.914171869659423,16.08573988838196,20.249971869659422,16.500039888381956,20.249971869659422C16.914239888381957,20.249971869659422,17.25003988838196,19.914171869659423,17.25003988838196,19.499971869659422C17.25003988838196,19.085771869659425,16.914239888381957,18.749971869659422,16.500039888381956,18.749971869659422C16.08573988838196,18.749971869659422,15.750039888381957,19.085771869659425,15.750039888381957,19.499971869659422Z" fill-rule="evenodd" fill="#000000" fill-opacity="1"/></g></g></svg>